<svg xmlns="http://www.w3.org/2000/svg" xmlns:xlink="http://www.w3.org/1999/xlink" width="512px" height="512px" style="shape-rendering:geometricPrecision; text-rendering:geometricPrecision; image-rendering:optimizeQuality; fill-rule:evenodd; clip-rule:evenodd"><g><path style="opacity:0.983" fill="#18be74" d="M 511.5,149.5 C 511.5,162.167 511.5,174.833 511.5,187.5C 506.226,222.48 493.393,254.48 473,283.5C 447.465,317.717 418.965,349.55 387.5,379C 346.977,416.101 306.643,453.434 266.5,491C 259.167,495.667 251.833,495.667 244.5,491C 204.357,453.434 164.023,416.101 123.5,379C 92.0347,349.55 63.5347,317.717 38,283.5C 17.2159,254.639 4.38253,222.639 -0.5,187.5C -0.5,174.5 -0.5,161.5 -0.5,148.5C 3.78382,107.134 21.1171,72.3008 51.5,44C 89.5686,15.3923 131.235,9.05892 176.5,25C 208.486,37.8241 234.82,57.9907 255.5,85.5C 277.343,55.9048 305.677,35.0714 340.5,23C 413.53,4.93534 466.03,29.7687 498,97.5C 504.72,114.386 509.22,131.719 511.5,149.5 Z M 200.5,114.5 C 225.305,117.131 240.138,130.798 245,155.5C 249.084,175.248 243.584,191.748 228.5,205C 212.692,213.553 198.025,211.886 184.5,200C 166.875,180.082 163.375,157.916 174,133.5C 180.184,123.337 189.018,117.004 200.5,114.5 Z M 303.5,114.5 C 320.205,114.714 332.038,122.381 339,137.5C 346.688,159.373 343.355,179.373 329,197.5C 310.212,215.112 291.878,214.778 274,196.5C 260.909,173.945 261.909,151.945 277,130.5C 284.265,122.367 293.099,117.034 303.5,114.5 Z M 127.5,185.5 C 151.639,185.656 167.139,197.323 174,220.5C 178.607,240.272 172.773,256.105 156.5,268C 135.38,276.407 118.213,271.241 105,252.5C 95.4195,235.649 95.0861,218.649 104,201.5C 109.845,193.14 117.678,187.807 127.5,185.5 Z M 371.5,185.5 C 398.389,185.554 412.389,199.054 413.5,226C 411.93,252.565 398.096,268.065 372,272.5C 355.348,271.529 344.015,263.195 338,247.5C 331.976,223.899 338.809,205.066 358.5,191C 362.741,188.651 367.075,186.818 371.5,185.5 Z M 248.5,220.5 C 271.722,219.2 290.556,227.533 305,245.5C 309.495,254.493 314.495,263.16 320,271.5C 327.743,277.621 335.577,283.621 343.5,289.5C 362.494,310.588 365.661,333.921 353,359.5C 338.438,381.029 318.271,389.862 292.5,386C 280.61,381.255 268.277,378.755 255.5,378.5C 251.833,378.667 248.167,378.833 244.5,379C 233.831,381.668 223.164,384.334 212.5,387C 182.309,387.813 162.143,373.98 152,345.5C 146.89,323.339 152.39,304.339 168.5,288.5C 176.269,283.198 183.769,277.531 191,271.5C 196.093,264.32 200.426,256.653 204,248.5C 215.111,233.197 229.945,223.864 248.5,220.5 Z"></path></g><g><path style="opacity:0.954" fill="#18be74" d="M 199.5,131.5 C 209.58,131.123 217.413,135.123 223,143.5C 230.347,156.353 231.347,169.687 226,183.5C 216.59,196.91 205.923,197.91 194,186.5C 183.031,171.304 181.698,155.304 190,138.5C 192.825,135.524 195.992,133.191 199.5,131.5 Z"></path></g><g><path style="opacity:0.955" fill="#18be74" d="M 302.5,131.5 C 314.418,130.548 321.918,135.881 325,147.5C 328.088,159.841 326.421,171.507 320,182.5C 315.288,189.025 308.955,193.025 301,194.5C 291.47,192.638 285.47,186.971 283,177.5C 279.39,162.106 282.89,148.606 293.5,137C 296.564,135.141 299.564,133.308 302.5,131.5 Z"></path></g><g><path style="opacity:0.954" fill="#18be74" d="M 127.5,202.5 C 147.353,202.184 157.687,212.017 158.5,232C 157.483,252.032 147.483,259.032 128.5,253C 116.111,243.841 111.611,231.675 115,216.5C 116.981,209.695 121.148,205.028 127.5,202.5 Z"></path></g><g><path style="opacity:0.954" fill="#18be74" d="M 371.5,202.5 C 388.446,200.939 397.113,208.772 397.5,226C 397.164,237.679 392.164,246.679 382.5,253C 363.517,259.032 353.517,252.032 352.5,232C 352.653,218.044 358.986,208.21 371.5,202.5 Z"></path></g><g><path style="opacity:0.982" fill="#18be74" d="M 247.5,237.5 C 272.793,235.384 289.96,246.051 299,269.5C 305.554,281.721 315.054,290.887 327.5,297C 346.397,314.153 349.23,333.653 336,355.5C 324.249,368.638 309.749,373.138 292.5,369C 273.676,361.288 254.342,359.621 234.5,364C 227.554,366.205 220.554,368.205 213.5,370C 190.837,372.318 175.67,362.818 168,341.5C 164.007,323.48 169.174,308.646 183.5,297C 191.184,292.986 198.017,287.819 204,281.5C 210.024,273.455 215.024,264.788 219,255.5C 226.447,246.038 235.947,240.038 247.5,237.5 Z"></path></g></svg>