<svg xmlns="http://www.w3.org/2000/svg" xmlns:xlink="http://www.w3.org/1999/xlink" width="512px" height="512px" style="shape-rendering:geometricPrecision; text-rendering:geometricPrecision; image-rendering:optimizeQuality; fill-rule:evenodd; clip-rule:evenodd"><g><path style="opacity:0.987" fill="#a4f3cf" d="M 237.5,20.5 C 333.118,17.3848 406.618,55.7181 458,135.5C 494.803,201.202 500.469,269.535 475,340.5C 436.77,429.059 369.603,478.892 273.5,490C 177.853,493.599 104.353,455.433 53,375.5C 15.2866,307.881 10.2866,237.881 38,165.5C 77.3767,79.9703 143.877,31.637 237.5,20.5 Z"></path></g><g><path style="opacity:1" fill="#a4f3cf" d="M 239.5,38.5 C 337.4,36.6843 408.567,79.0177 453,165.5C 485.008,242.754 477.342,315.754 430,384.5C 378.587,449.273 311.42,478.106 228.5,471C 150.938,458.493 94.4383,417.326 59,347.5C 22.9403,261.245 34.6069,182.245 94,110.5C 133.427,68.2031 181.927,44.2031 239.5,38.5 Z"></path></g><g><path style="opacity:1" fill="#18be72" d="M 200.5,123.5 C 222.469,123.742 237.635,134.075 246,154.5C 253.919,177.985 251.585,200.319 239,221.5C 225.63,239.04 208.797,243.54 188.5,235C 176.642,227.133 168.809,216.3 165,202.5C 158.52,180.758 161.52,160.425 174,141.5C 181.023,132.591 189.857,126.591 200.5,123.5 Z"></path></g><g><path style="opacity:1" fill="#18be72" d="M 298.5,123.5 C 314.543,122.604 327.376,128.604 337,141.5C 354.098,169.596 353.431,197.263 335,224.5C 319.962,240.643 302.795,243.476 283.5,233C 267.425,219.306 259.759,201.806 260.5,180.5C 259.986,161.032 266.986,144.865 281.5,132C 286.941,128.48 292.608,125.646 298.5,123.5 Z"></path></g><g><path style="opacity:1" fill="#18be72" d="M 201.5,141.5 C 210.89,140.612 218.39,143.946 224,151.5C 235.119,168.717 236.452,186.717 228,205.5C 220.356,221.382 208.856,225.215 193.5,217C 178.604,199.865 175.438,180.698 184,159.5C 188.023,151.645 193.857,145.645 201.5,141.5 Z"></path></g><g><path style="opacity:1" fill="#18be72" d="M 299.5,141.5 C 310.895,140.783 319.395,145.45 325,155.5C 334.734,175.636 333.4,194.969 321,213.5C 306.404,225.777 294.071,223.777 284,207.5C 272.722,184.349 275.889,163.515 293.5,145C 295.727,144.059 297.727,142.892 299.5,141.5 Z"></path></g><g><path style="opacity:1" fill="#18be72" d="M 120.5,218.5 C 144.484,218.755 160.984,230.088 170,252.5C 174.132,264.851 172.799,276.517 166,287.5C 156.282,297.138 144.782,299.971 131.5,296C 106.033,284.554 95.2,265.054 99,237.5C 102.973,227.35 110.14,221.016 120.5,218.5 Z"></path></g><g><path style="opacity:1" fill="#18be72" d="M 376.5,218.5 C 404.978,217.809 416.811,231.476 412,259.5C 404.147,285.707 386.647,298.207 359.5,297C 343.541,290.596 336.707,278.763 339,261.5C 343.549,240.125 356.049,225.791 376.5,218.5 Z"></path></g><g><path style="opacity:1" fill="#18be72" d="M 121.5,236.5 C 138.497,236.648 149.33,244.982 154,261.5C 156.385,277.446 149.885,282.946 134.5,278C 120.823,270.477 114.656,258.977 116,243.5C 116.967,240.379 118.8,238.046 121.5,236.5 Z"></path></g><g><path style="opacity:1" fill="#18be72" d="M 378.5,236.5 C 392.748,234.93 398.248,241.263 395,255.5C 391.32,266.514 384.153,274.347 373.5,279C 359.571,281.367 354.071,275.534 357,261.5C 360.444,249.895 367.61,241.561 378.5,236.5 Z"></path></g><g><path style="opacity:1" fill="#18be72" d="M 245.5,244.5 C 295.685,243.528 329.518,266.528 347,313.5C 354.138,331.987 356.138,350.987 353,370.5C 348.223,383.814 338.723,389.314 324.5,387C 306.454,382.208 288.454,377.208 270.5,372C 259.823,370.066 249.156,370.066 238.5,372C 221.5,377 204.5,382 187.5,387C 170.828,389.639 160.661,382.806 157,366.5C 154.302,323.417 169.469,288.251 202.5,261C 215.752,252.42 230.085,246.92 245.5,244.5 Z"></path></g><g><path style="opacity:1" fill="#18be72" d="M 244.5,262.5 C 282.975,260.483 310.475,276.817 327,311.5C 334.846,328.7 337.846,346.7 336,365.5C 335.535,366.931 334.701,368.097 333.5,369C 328.761,369.726 324.095,369.393 319.5,368C 306.833,364 294.167,360 281.5,356C 265.547,351.984 249.547,351.651 233.5,355C 217.5,359.667 201.5,364.333 185.5,369C 182.007,370.004 178.841,369.504 176,367.5C 171.573,331.851 182.739,302.017 209.5,278C 220.024,270.067 231.691,264.901 244.5,262.5 Z"></path></g></svg>