<svg xmlns="http://www.w3.org/2000/svg" xmlns:xlink="http://www.w3.org/1999/xlink" width="512px" height="512px" style="shape-rendering:geometricPrecision; text-rendering:geometricPrecision; image-rendering:optimizeQuality; fill-rule:evenodd; clip-rule:evenodd"><g><path style="opacity:0.97" fill="#18be74" d="M -0.5,486.5 C -0.5,482.167 -0.5,477.833 -0.5,473.5C 12.5566,442.369 25.39,411.036 38,379.5C 39.9427,368.843 41.776,358.177 43.5,347.5C 61.223,346.281 73.0563,337.281 79,320.5C 81,313.5 81,306.5 79,299.5C 72.8333,280.333 66.6667,261.167 60.5,242C 67.8755,224.708 75.5422,207.541 83.5,190.5C 83.1543,189.304 82.6543,189.304 82,190.5C 69.2405,207.016 56.2405,223.349 43,239.5C 42.3333,241.167 42.3333,242.833 43,244.5C 50.238,266.214 57.0714,288.047 63.5,310C 59.8267,327.656 49.4933,333.322 32.5,327C 30.6667,325.167 28.8333,323.333 27,321.5C 17.2975,293.893 8.13087,266.227 -0.5,238.5C -0.5,236.167 -0.5,233.833 -0.5,231.5C 0.95406,228.592 2.45406,225.592 4,222.5C 19.6667,203.5 35.3333,184.5 51,165.5C 51.4551,151.049 58.6218,141.882 72.5,138C 88.5,137.333 104.5,137.333 120.5,138C 124.385,138.739 128.052,140.073 131.5,142C 133.871,144.706 136.537,147.039 139.5,149C 154.55,153.012 169.55,157.179 184.5,161.5C 196.351,155.746 207.684,149.246 218.5,142C 201.874,97.8427 210.874,59.8427 245.5,28C 273.079,7.45837 303.413,2.12504 336.5,12C 377.253,28.2802 398.919,58.4469 401.5,102.5C 397.979,154.184 370.979,185.684 320.5,197C 291.208,201.056 265.375,193.556 243,174.5C 226.316,184.592 209.149,193.759 191.5,202C 187.449,202.518 183.449,202.184 179.5,201C 167.567,197.517 155.567,194.35 143.5,191.5C 143.492,228.508 143.326,265.508 143,302.5C 149.667,328.5 156.333,354.5 163,380.5C 164.104,409.658 164.937,438.825 165.5,468C 168.164,480.713 164.83,491.38 155.5,500C 138.113,507.877 125.947,503.044 119,485.5C 118.014,452.833 117.014,420.166 116,387.5C 109.667,362.833 103.333,338.167 97,313.5C 92.6667,339.5 88.3333,365.5 84,391.5C 70.6099,425.28 56.9432,458.947 43,492.5C 36.6742,502.058 27.8409,505.558 16.5,503C 7.65218,500.651 1.98551,495.151 -0.5,486.5 Z M 303.5,30.5 C 348.234,33.9007 372.9,57.9007 377.5,102.5C 373.398,145.435 349.898,169.435 307,174.5C 290.623,174.542 276.123,169.542 263.5,159.5C 268.909,143.316 263.242,133.65 246.5,130.5C 244.142,130.753 241.808,131.086 239.5,131.5C 227.188,94.9352 236.521,65.1019 267.5,42C 278.769,35.4083 290.769,31.575 303.5,30.5 Z"></path></g><g><path style="opacity:0.972" fill="#18be74" d="M 88.5,45.5 C 115.242,46.0809 129.909,59.5809 132.5,86C 132.038,104.252 123.371,116.919 106.5,124C 83.3589,130.01 66.1923,122.51 55,101.5C 48.6751,81.2761 53.8418,64.7761 70.5,52C 76.3009,48.9029 82.3009,46.7363 88.5,45.5 Z"></path></g><g><path style="opacity:0.962" fill="#18be74" d="M 511.5,363.5 C 511.5,365.5 511.5,367.5 511.5,369.5C 494.237,382.274 475.071,386.941 454,383.5C 449.885,403.949 438.552,418.949 420,428.5C 416.579,439.103 412.579,449.436 408,459.5C 398.476,465.152 392.309,462.652 389.5,452C 392.441,442.509 395.774,433.176 399.5,424C 395.5,407.974 396.333,392.141 402,376.5C 404.26,371.644 407.26,367.311 411,363.5C 411.443,357.96 408.943,356.127 403.5,358C 401.707,360.795 399.54,363.295 397,365.5C 395.587,368.661 393.92,371.661 392,374.5C 358.114,349.613 325.114,323.613 293,296.5C 290.854,285.642 295.354,280.809 306.5,282C 318.121,290.619 329.455,299.619 340.5,309C 341.635,309.749 342.635,309.583 343.5,308.5C 348.369,296.597 353.369,284.763 358.5,273C 357.739,266.237 354.073,261.904 347.5,260C 344.131,257.635 341.964,254.468 341,250.5C 340.123,243.751 340.456,237.084 342,230.5C 342.903,229.299 344.069,228.465 345.5,228C 350.767,227.326 355.934,227.826 361,229.5C 369.526,225.579 378.026,225.579 386.5,229.5C 387.521,230.002 387.688,230.668 387,231.5C 379.092,236.736 373.425,243.736 370,252.5C 368.159,262.003 371.993,267.836 381.5,270C 387.537,270.697 393.537,270.53 399.5,269.5C 398.909,275.211 398.409,280.877 398,286.5C 416.051,309.55 433.717,332.883 451,356.5C 451.761,359.053 452.594,361.553 453.5,364C 465.64,369.71 478.306,371.044 491.5,368C 497.137,366.566 502.637,364.732 508,362.5C 509.138,362.989 510.305,363.322 511.5,363.5 Z"></path></g><g><path style="opacity:0.916" fill="#18be74" d="M 396.5,234.5 C 407.82,237.45 412.32,244.783 410,256.5C 407.058,259.122 403.558,260.622 399.5,261C 393.147,262.741 386.813,262.741 380.5,261C 376.972,257.79 376.806,254.29 380,250.5C 384.734,244.264 390.234,238.931 396.5,234.5 Z"></path></g></svg>